<svg xmlns="http://www.w3.org/2000/svg" viewBox="0 0 16 20" shape-rendering="crispEdges" width="80" height="100">
  <rect x="7" y="0" width="2" height="1" fill="#fde047"/>
  <rect x="6" y="1" width="4" height="1" fill="#fbbf24"/>
  <rect x="5" y="2" width="6" height="1" fill="#fb923c"/>
  <rect x="6" y="2" width="4" height="1" fill="#fde047"/>
  <rect x="4" y="3" width="8" height="1" fill="#f97316"/>
  <rect x="5" y="3" width="6" height="1" fill="#fbbf24"/>
  <rect x="6" y="3" width="4" height="1" fill="#fef3c7"/>
  <rect x="4" y="4" width="8" height="1" fill="#ea580c"/>
  <rect x="5" y="4" width="6" height="1" fill="#fb923c"/>
  <rect x="6" y="4" width="4" height="1" fill="#fde047"/>
  <rect x="3" y="5" width="10" height="1" fill="#dc2626"/>
  <rect x="4" y="5" width="8" height="1" fill="#f97316"/>
  <rect x="6" y="5" width="4" height="1" fill="#fbbf24"/>
  <rect x="3" y="6" width="10" height="1" fill="#991b1b"/>
  <rect x="4" y="6" width="8" height="1" fill="#dc2626"/>
  <rect x="5" y="6" width="6" height="1" fill="#fb923c"/>
  <rect x="4" y="7" width="8" height="1" fill="#7f1d1d"/>
  <rect x="5" y="7" width="6" height="1" fill="#dc2626"/>
  <rect x="6" y="7" width="4" height="1" fill="#fb923c"/>
  <rect x="7" y="9" width="2" height="6" fill="#94a3b8"/>
  <rect x="6" y="9" width="1" height="1" fill="#cbd5e1"/>
  <rect x="9" y="9" width="1" height="1" fill="#64748b"/>
  <rect x="6" y="11" width="4" height="1" fill="#fbbf24"/>
  <rect x="6" y="12" width="4" height="1" fill="#92400e"/>
  <rect x="1" y="15" width="2" height="2" fill="#451a03"/>
  <rect x="2" y="14" width="3" height="1" fill="#451a03"/>
  <rect x="3" y="15" width="3" height="2" fill="#78350f"/>
  <rect x="6" y="15" width="4" height="2" fill="#92400e"/>
  <rect x="10" y="14" width="3" height="1" fill="#451a03"/>
  <rect x="11" y="15" width="3" height="2" fill="#78350f"/>
  <rect x="13" y="15" width="2" height="2" fill="#451a03"/>
  <rect x="0" y="17" width="16" height="1" fill="#1f2937"/>
  <rect x="2" y="17" width="2" height="1" fill="#374151"/>
  <rect x="7" y="17" width="2" height="1" fill="#374151"/>
  <rect x="12" y="17" width="2" height="1" fill="#374151"/>
  <rect x="0" y="18" width="16" height="2" fill="#0f172a"/>
</svg>
