<svg xmlns="http://www.w3.org/2000/svg" viewBox="0 0 16 16" shape-rendering="crispEdges" width="48" height="48">
  <rect x="2" y="3" width="12" height="1" fill="#451a03"/>
  <rect x="1" y="4" width="14" height="4" fill="#92400e"/>
  <rect x="2" y="5" width="12" height="1" fill="#b45309"/>
  <rect x="1" y="4" width="14" height="1" fill="#fbbf24"/>
  <rect x="1" y="7" width="14" height="1" fill="#fbbf24"/>
  <rect x="1" y="4" width="1" height="4" fill="#fbbf24"/>
  <rect x="14" y="4" width="1" height="4" fill="#fbbf24"/>
  <rect x="7" y="5" width="2" height="3" fill="#fbbf24"/>
  <rect x="7" y="6" width="2" height="1" fill="#0d1117"/>
  <rect x="1" y="8" width="14" height="6" fill="#92400e"/>
  <rect x="2" y="9" width="12" height="1" fill="#b45309"/>
  <rect x="1" y="13" width="14" height="1" fill="#fbbf24"/>
  <rect x="1" y="8" width="1" height="6" fill="#fbbf24"/>
  <rect x="14" y="8" width="1" height="6" fill="#fbbf24"/>
  <rect x="3" y="10" width="2" height="1" fill="#fde047"/>
  <rect x="11" y="10" width="2" height="1" fill="#fde047"/>
  <rect x="6" y="11" width="4" height="1" fill="#fde047"/>
</svg>
