<svg xmlns="http://www.w3.org/2000/svg" viewBox="0 0 16 16" shape-rendering="crispEdges" width="48" height="48">
  <rect x="7" y="2" width="2" height="1" fill="#fde047"/>
  <rect x="6" y="3" width="4" height="1" fill="#fbbf24"/>
  <rect x="7" y="3" width="2" height="1" fill="#fef3c7"/>
  <rect x="5" y="4" width="6" height="1" fill="#fb923c"/>
  <rect x="6" y="4" width="4" height="1" fill="#fde047"/>
  <rect x="4" y="5" width="8" height="1" fill="#f97316"/>
  <rect x="5" y="5" width="6" height="1" fill="#fbbf24"/>
  <rect x="7" y="5" width="2" height="1" fill="#fef3c7"/>
  <rect x="4" y="6" width="8" height="1" fill="#ea580c"/>
  <rect x="5" y="6" width="6" height="1" fill="#fb923c"/>
  <rect x="6" y="6" width="4" height="1" fill="#fde047"/>
  <rect x="4" y="7" width="8" height="1" fill="#dc2626"/>
  <rect x="5" y="7" width="6" height="1" fill="#f97316"/>
  <rect x="6" y="7" width="4" height="1" fill="#fbbf24"/>
  <rect x="3" y="8" width="10" height="1" fill="#991b1b"/>
  <rect x="4" y="8" width="8" height="1" fill="#dc2626"/>
  <rect x="5" y="8" width="6" height="1" fill="#fb923c"/>
  <rect x="3" y="9" width="10" height="1" fill="#7f1d1d"/>
  <rect x="4" y="9" width="8" height="1" fill="#991b1b"/>
  <rect x="5" y="9" width="6" height="1" fill="#dc2626"/>
  <rect x="4" y="10" width="8" height="1" fill="#7f1d1d"/>
  <rect x="5" y="10" width="6" height="1" fill="#991b1b"/>
  <rect x="6" y="10" width="4" height="1" fill="#dc2626"/>
  <rect x="5" y="11" width="6" height="1" fill="#7f1d1d"/>
  <rect x="6" y="11" width="4" height="1" fill="#991b1b"/>
  <rect x="6" y="12" width="4" height="1" fill="#450a0a"/>
  <rect x="7" y="13" width="2" height="1" fill="#1c0a0a"/>
</svg>
