<svg xmlns="http://www.w3.org/2000/svg" viewBox="0 0 16 20" shape-rendering="crispEdges" width="80" height="100">
  <rect x="6" y="0" width="4" height="1" fill="#451a03"/>
  <rect x="5" y="1" width="6" height="1" fill="#78350f"/>
  <rect x="6" y="1" width="4" height="1" fill="#92400e"/>
  <rect x="7" y="2" width="2" height="2" fill="#94a3b8"/>
  <rect x="6" y="4" width="4" height="1" fill="#64748b"/>
  <rect x="5" y="5" width="6" height="1" fill="#94a3b8"/>
  <rect x="4" y="6" width="8" height="1" fill="#64748b"/>
  <rect x="3" y="7" width="10" height="1" fill="#475569"/>
  <rect x="2" y="8" width="12" height="9" fill="#1e293b"/>
  <rect x="3" y="8" width="10" height="1" fill="#334155"/>
  <rect x="2" y="9" width="1" height="7" fill="#0f172a"/>
  <rect x="13" y="9" width="1" height="7" fill="#0f172a"/>
  <rect x="3" y="9" width="10" height="7" fill="#ea580c"/>
  <rect x="3" y="9" width="2" height="2" fill="#fbbf24"/>
  <rect x="4" y="10" width="1" height="1" fill="#fef3c7"/>
  <rect x="4" y="11" width="8" height="1" fill="#f97316"/>
  <rect x="4" y="12" width="8" height="3" fill="#dc2626"/>
  <rect x="4" y="15" width="8" height="1" fill="#7f1d1d"/>
  <rect x="3" y="16" width="10" height="1" fill="#0f172a"/>
  <rect x="2" y="17" width="12" height="1" fill="#1e293b"/>
  <rect x="3" y="18" width="10" height="1" fill="#0f172a"/>
  <rect x="9" y="10" width="1" height="2" fill="#fde047"/>
  <rect x="10" y="11" width="1" height="1" fill="#fef3c7"/>
</svg>
