<svg xmlns="http://www.w3.org/2000/svg" viewBox="0 0 16 20" shape-rendering="crispEdges" width="64" height="80">
  <rect x="7" y="0" width="2" height="1" fill="#fbbf24"/>
  <rect x="6" y="1" width="4" height="2" fill="#6b21a8"/>
  <rect x="5" y="3" width="6" height="2" fill="#8b5cf6"/>
  <rect x="4" y="5" width="8" height="1" fill="#6b21a8"/>
  <rect x="5" y="6" width="6" height="3" fill="#fde68a"/>
  <rect x="6" y="7" width="1" height="1" fill="#0d1117"/>
  <rect x="9" y="7" width="1" height="1" fill="#0d1117"/>
  <rect x="6" y="8" width="4" height="1" fill="#fde68a"/>
  <rect x="7" y="8" width="2" height="1" fill="#ef4444"/>
  <rect x="4" y="9" width="8" height="6" fill="#8b5cf6"/>
  <rect x="3" y="10" width="1" height="4" fill="#8b5cf6"/>
  <rect x="12" y="10" width="1" height="4" fill="#8b5cf6"/>
  <rect x="5" y="11" width="6" height="1" fill="#a78bfa"/>
  <rect x="6" y="12" width="4" height="1" fill="#fbbf24"/>
  <rect x="7" y="13" width="2" height="1" fill="#fbbf24"/>
  <rect x="4" y="15" width="8" height="1" fill="#6b21a8"/>
  <rect x="5" y="16" width="2" height="2" fill="#451a03"/>
  <rect x="9" y="16" width="2" height="2" fill="#451a03"/>
  <rect x="13" y="9" width="1" height="6" fill="#92400e"/>
  <rect x="12" y="8" width="1" height="1" fill="#22d3ee"/>
  <rect x="14" y="8" width="1" height="1" fill="#22d3ee"/>
  <rect x="13" y="7" width="1" height="1" fill="#67e8f9"/>
  <rect x="13" y="9" width="1" height="1" fill="#67e8f9"/>
</svg>
