<svg xmlns="http://www.w3.org/2000/svg" viewBox="0 0 24 32" shape-rendering="crispEdges" width="144" height="192">
  <rect x="11" y="2" width="2" height="1" fill="#050508"/>
  <rect x="10" y="3" width="4" height="1" fill="#1a1525"/>
  <rect x="9" y="4" width="6" height="1" fill="#1a1525"/>
  <rect x="8" y="5" width="8" height="1" fill="#1a1525"/>
  <rect x="10" y="5" width="4" height="1" fill="#000000"/>
  <rect x="7" y="6" width="10" height="1" fill="#1a1525"/>
  <rect x="9" y="6" width="6" height="1" fill="#000000"/>
  <rect x="7" y="7" width="10" height="1" fill="#1a1525"/>
  <rect x="8" y="7" width="8" height="1" fill="#000000"/>
  <rect x="9" y="7" width="2" height="1" fill="#ef4444"/>
  <rect x="13" y="7" width="2" height="1" fill="#ef4444"/>
  <rect x="7" y="8" width="10" height="1" fill="#1a1525"/>
  <rect x="8" y="8" width="8" height="1" fill="#000000"/>
  <rect x="9" y="8" width="2" height="1" fill="#7f1d1d"/>
  <rect x="13" y="8" width="2" height="1" fill="#7f1d1d"/>
  <rect x="7" y="9" width="10" height="1" fill="#1a1525"/>
  <rect x="9" y="9" width="6" height="1" fill="#000000"/>
  <rect x="7" y="10" width="10" height="1" fill="#1a1525"/>
  <rect x="10" y="10" width="4" height="1" fill="#000000"/>
  <rect x="6" y="11" width="12" height="1" fill="#1a1525"/>
  <rect x="5" y="12" width="14" height="1" fill="#1a1525"/>
  <rect x="4" y="13" width="16" height="1" fill="#1a1525"/>
  <rect x="4" y="14" width="16" height="1" fill="#1a1525"/>
  <rect x="11" y="14" width="2" height="1" fill="#6b21a8"/>
  <rect x="4" y="15" width="16" height="1" fill="#1a1525"/>
  <rect x="11" y="15" width="2" height="1" fill="#a855f7"/>
  <rect x="4" y="16" width="16" height="1" fill="#1a1525"/>
  <rect x="11" y="16" width="2" height="1" fill="#06b6d4"/>
  <rect x="4" y="17" width="16" height="1" fill="#1a1525"/>
  <rect x="11" y="17" width="2" height="1" fill="#06b6d4"/>
  <rect x="4" y="18" width="16" height="1" fill="#1a1525"/>
  <rect x="4" y="19" width="16" height="1" fill="#1a1525"/>
  <rect x="5" y="20" width="14" height="1" fill="#1a1525"/>
  <rect x="5" y="21" width="14" height="1" fill="#1a1525"/>
  <rect x="5" y="22" width="3" height="1" fill="#1a1525"/>
  <rect x="9" y="22" width="3" height="1" fill="#1a1525"/>
  <rect x="13" y="22" width="3" height="1" fill="#1a1525"/>
  <rect x="17" y="22" width="2" height="1" fill="#1a1525"/>
  <rect x="5" y="23" width="2" height="1" fill="#1a1525"/>
  <rect x="10" y="23" width="2" height="1" fill="#1a1525"/>
  <rect x="14" y="23" width="2" height="1" fill="#1a1525"/>
  <rect x="17" y="23" width="1" height="1" fill="#1a1525"/>
  <rect x="6" y="24" width="1" height="1" fill="#050508"/>
  <rect x="11" y="24" width="1" height="1" fill="#050508"/>
  <rect x="14" y="24" width="1" height="1" fill="#050508"/>
  <rect x="17" y="24" width="1" height="1" fill="#050508"/>
  <rect x="20" y="6" width="1" height="22" fill="#2d1b0f"/>
  <rect x="21" y="6" width="1" height="22" fill="#1c1209"/>
  <rect x="19" y="1" width="3" height="1" fill="#e5e7eb"/>
  <rect x="18" y="2" width="5" height="1" fill="#e5e7eb"/>
  <rect x="18" y="3" width="5" height="1" fill="#e5e7eb"/>
  <rect x="19" y="3" width="1" height="1" fill="#06b6d4"/>
  <rect x="21" y="3" width="1" height="1" fill="#06b6d4"/>
  <rect x="18" y="4" width="5" height="1" fill="#cbd5e1"/>
  <rect x="19" y="5" width="3" height="1" fill="#e5e7eb"/>
  <rect x="19" y="5" width="1" height="1" fill="#94a3b8"/>
  <rect x="21" y="5" width="1" height="1" fill="#94a3b8"/>
  <rect x="17" y="2" width="1" height="1" fill="#06b6d4"/>
  <rect x="23" y="3" width="1" height="1" fill="#06b6d4"/>
  <rect x="17" y="4" width="1" height="1" fill="#06b6d4"/>
  <rect x="23" y="4" width="1" height="1" fill="#06b6d4"/>
  <rect x="18" y="15" width="2" height="1" fill="#e5e7eb"/>
  <rect x="18" y="16" width="2" height="1" fill="#cbd5e1"/>
  <rect x="19" y="17" width="1" height="1" fill="#94a3b8"/>
  <rect x="2" y="9" width="1" height="1" fill="#67e8f9"/>
  <rect x="3" y="8" width="1" height="1" fill="#cffafe"/>
  <rect x="3" y="10" width="1" height="1" fill="#06b6d4"/>
  <rect x="1" y="22" width="1" height="1" fill="#06b6d4"/>
  <rect x="2" y="23" width="1" height="1" fill="#67e8f9"/>
  <rect x="22" y="26" width="1" height="1" fill="#67e8f9"/>
  <rect x="23" y="25" width="1" height="1" fill="#06b6d4"/>
  <rect x="3" y="18" width="1" height="1" fill="#67e8f9"/>
  <rect x="0" y="14" width="1" height="1" fill="#06b6d4"/>
  <rect x="8" y="27" width="1" height="1" fill="#67e8f9"/>
  <rect x="9" y="28" width="1" height="1" fill="#06b6d4"/>
  <rect x="14" y="29" width="1" height="1" fill="#67e8f9"/>
  <rect x="6" y="3" width="1" height="1" fill="#06b6d4"/>
</svg>
