<svg xmlns="http://www.w3.org/2000/svg" viewBox="0 0 16 16" shape-rendering="crispEdges" width="48" height="48">
  <rect x="3" y="2" width="10" height="1" fill="#fbbf24"/>
  <rect x="2" y="3" width="12" height="1" fill="#fbbf24"/>
  <rect x="2" y="4" width="12" height="7" fill="#3b82f6"/>
  <rect x="2" y="4" width="12" height="1" fill="#60a5fa"/>
  <rect x="2" y="4" width="1" height="6" fill="#60a5fa"/>
  <rect x="13" y="4" width="1" height="6" fill="#1d4ed8"/>
  <rect x="2" y="10" width="12" height="1" fill="#1d4ed8"/>
  <rect x="3" y="11" width="10" height="1" fill="#3b82f6"/>
  <rect x="4" y="12" width="8" height="1" fill="#1d4ed8"/>
  <rect x="5" y="13" width="6" height="1" fill="#1e3a8a"/>
  <rect x="6" y="14" width="4" height="1" fill="#1e3a8a"/>
  <rect x="7" y="15" width="2" height="1" fill="#1e3a8a"/>
  <rect x="7" y="5" width="2" height="1" fill="#fbbf24"/>
  <rect x="6" y="6" width="4" height="1" fill="#fbbf24"/>
  <rect x="5" y="7" width="6" height="1" fill="#fbbf24"/>
  <rect x="7" y="8" width="2" height="3" fill="#fbbf24"/>
</svg>
