<svg xmlns="http://www.w3.org/2000/svg" viewBox="0 0 16 16" shape-rendering="crispEdges" width="64" height="64">
  <rect x="4" y="2" width="8" height="1" fill="#cbd5e1"/>
  <rect x="3" y="3" width="10" height="1" fill="#e5e7eb"/>
  <rect x="3" y="4" width="10" height="3" fill="#f1f5f9"/>
  <rect x="3" y="4" width="1" height="3" fill="#cbd5e1"/>
  <rect x="12" y="4" width="1" height="3" fill="#cbd5e1"/>
  <rect x="4" y="5" width="2" height="2" fill="#0f172a"/>
  <rect x="10" y="5" width="2" height="2" fill="#0f172a"/>
  <rect x="4" y="5" width="1" height="1" fill="#67e8f9"/>
  <rect x="10" y="5" width="1" height="1" fill="#67e8f9"/>
  <rect x="3" y="7" width="10" height="1" fill="#e5e7eb"/>
  <rect x="4" y="8" width="8" height="1" fill="#f1f5f9"/>
  <rect x="5" y="9" width="6" height="1" fill="#e5e7eb"/>
  <rect x="7" y="8" width="2" height="1" fill="#0f172a"/>
  <rect x="5" y="10" width="1" height="2" fill="#e5e7eb"/>
  <rect x="7" y="10" width="1" height="2" fill="#e5e7eb"/>
  <rect x="9" y="10" width="1" height="2" fill="#e5e7eb"/>
  <rect x="11" y="10" width="1" height="2" fill="#e5e7eb"/>
  <rect x="6" y="10" width="1" height="2" fill="#0f172a"/>
  <rect x="8" y="10" width="1" height="2" fill="#0f172a"/>
  <rect x="10" y="10" width="1" height="2" fill="#0f172a"/>
</svg>
